<svg width="124" height="134" viewBox="0 0 124 134" fill="none" xmlns="http://www.w3.org/2000/svg">
<path fill-rule="evenodd" clip-rule="evenodd" d="M82.5099 57.0744L4.05931 12.2473C2.8677 11.5664 2.34504 10.086 3.03428 8.89414C7.57752 1.03796 17.856 -2.64851 26.7326 2.13557L114.32 49.3407C124.471 54.8117 126.396 67.8288 119.888 76.0958C119.129 77.0597 117.776 77.2258 116.714 76.6187L88.2581 60.359C88.1088 60.2737 87.9688 60.1731 87.8339 60.0661C87.5186 59.816 87.1742 59.5883 86.8009 59.3871L82.5099 57.0744ZM36.352 102.49C36.352 101.513 36.8693 100.609 37.7097 100.119L82.1463 74.1904C82.9837 73.7017 84.016 73.697 84.8578 74.178L101.32 83.5849C103.15 84.6301 103.162 87.2785 101.342 88.3403L40.4425 123.875C38.6264 124.934 36.352 123.616 36.352 121.503V102.49ZM21.0802 37.7352C21.9326 38.2222 22.4592 39.1326 22.4592 40.119V97.1217C22.4592 97.6672 22.5199 98.1916 22.6337 98.6905C22.6914 98.9434 22.7316 99.2008 22.7316 99.4604V131.323C22.7316 132.573 21.8928 133.687 20.6614 133.851C10.5856 135.187 0.666626 127.402 0.666626 116.155V30.7797C0.666626 28.6782 2.91978 27.3582 4.73576 28.3959L21.0802 37.7352Z" fill="#0F171E"/>
</svg>
