<svg width="124" height="134" viewBox="0 0 124 134" fill="none" xmlns="http://www.w3.org/2000/svg">
<path fill-rule="evenodd" clip-rule="evenodd" d="M82.1766 57.0744L3.72606 12.2473C2.53445 11.5664 2.01179 10.086 2.70103 8.89414C7.24427 1.03796 17.5227 -2.64851 26.3994 2.13557L113.986 49.3407C124.138 54.8117 126.062 67.8288 119.555 76.0958C118.796 77.0597 117.443 77.2258 116.38 76.6187L87.9249 60.359C87.7755 60.2737 87.6356 60.1731 87.5007 60.0661C87.1853 59.816 86.841 59.5883 86.4677 59.3871L82.1766 57.0744ZM36.0187 102.49C36.0187 101.513 36.536 100.609 37.3764 100.119L81.8131 74.1904C82.6505 73.7017 83.6827 73.697 84.5245 74.178L100.987 83.5849C102.816 84.6301 102.828 87.2785 101.009 88.3403L40.1092 123.875C38.2932 124.934 36.0187 123.616 36.0187 121.503V102.49ZM20.7469 37.7352C21.5993 38.2222 22.126 39.1326 22.126 40.119V97.1217C22.126 97.6672 22.1866 98.1916 22.3005 98.6905C22.3582 98.9434 22.3984 99.2008 22.3984 99.4604V131.323C22.3984 132.573 21.5596 133.687 20.3282 133.851C10.2524 135.187 0.333374 127.402 0.333374 116.155V30.7797C0.333374 28.6782 2.58652 27.3582 4.4025 28.3959L20.7469 37.7352Z" fill="#1A242F"/>
</svg>
