<svg width="123" height="134" viewBox="0 0 123 134" fill="none" xmlns="http://www.w3.org/2000/svg">
<path fill-rule="evenodd" clip-rule="evenodd" d="M81.8432 57.0744L3.39269 12.2473C2.20108 11.5664 1.67841 10.086 2.36766 8.89414C6.9109 1.03796 17.1894 -2.64851 26.066 2.13557L113.653 49.3407C123.804 54.8117 125.729 67.8288 119.222 76.0958C118.463 77.0597 117.11 77.2258 116.047 76.6187L87.5915 60.359C87.4422 60.2737 87.3022 60.1731 87.1673 60.0661C86.8519 59.816 86.5076 59.5883 86.1343 59.3871L81.8432 57.0744ZM35.6854 102.49C35.6854 101.513 36.2027 100.609 37.043 100.119L81.4797 74.1904C82.3171 73.7017 83.3493 73.697 84.1911 74.178L100.654 83.5849C102.483 84.6301 102.495 87.2785 100.675 88.3403L39.7758 123.875C37.9598 124.934 35.6854 123.616 35.6854 121.503V102.49ZM20.4136 37.7352C21.266 38.2222 21.7926 39.1326 21.7926 40.119V97.1217C21.7926 97.6672 21.8533 98.1916 21.9671 98.6905C22.0248 98.9434 22.065 99.2008 22.065 99.4604V131.323C22.065 132.573 21.2262 133.687 19.9948 133.851C9.919 135.187 0 127.402 0 116.155V30.7797C0 28.6782 2.25315 27.3582 4.06913 28.3959L20.4136 37.7352Z" fill="#1399DE"/>
</svg>
