<svg width="661" height="168" viewBox="0 0 661 168" fill="none" xmlns="http://www.w3.org/2000/svg">
<path d="M273.44 150L258 108.8H273.92L280.48 136L287.28 108.8H302.8L287.52 150H273.44ZM307.886 150V108.8H322.926V150H307.886ZM315.406 103.6C312.846 103.6 310.792 102.907 309.246 101.52C307.752 100.133 307.006 98.2933 307.006 96C307.006 93.7067 307.752 91.8667 309.246 90.48C310.792 89.0933 312.846 88.4 315.406 88.4C317.966 88.4 319.992 89.0933 321.486 90.48C323.032 91.8667 323.806 93.7067 323.806 96C323.806 98.2933 323.032 100.133 321.486 101.52C319.992 102.907 317.966 103.6 315.406 103.6ZM347.838 150.88C342.611 150.88 338.505 148.987 335.518 145.2C332.585 141.413 331.118 136.213 331.118 129.6C331.118 125.067 331.838 121.147 333.278 117.84C334.771 114.533 336.825 112 339.438 110.24C342.051 108.48 345.038 107.6 348.398 107.6C352.078 107.6 355.305 108.613 358.078 110.64V90.8H373.118V150H360.478L359.278 146.32C357.838 147.76 356.105 148.88 354.078 149.68C352.105 150.48 350.025 150.88 347.838 150.88ZM353.038 140.32C354.478 140.32 356.158 139.92 358.078 139.12V119.12C356.425 118.373 354.558 118 352.478 118C350.345 118 348.771 118.907 347.758 120.72C346.798 122.533 346.318 125.387 346.318 129.28C346.318 133.12 346.825 135.92 347.838 137.68C348.905 139.44 350.638 140.32 353.038 140.32ZM394.954 133.2C395.221 135.867 396.234 137.813 397.994 139.04C399.808 140.213 402.501 140.8 406.074 140.8C409.488 140.8 413.648 140.107 418.554 138.72V147.92C416.528 148.933 414.101 149.733 411.274 150.32C408.448 150.907 405.648 151.2 402.874 151.2C388.474 151.2 381.274 143.947 381.274 129.44C381.274 122.613 383.114 117.28 386.794 113.44C390.474 109.547 395.594 107.6 402.154 107.6C407.701 107.6 411.994 109.093 415.034 112.08C418.074 115.013 419.594 119.227 419.594 124.72C419.594 125.947 419.488 127.413 419.274 129.12C419.114 130.773 418.928 132.133 418.714 133.2H394.954ZM401.754 117.6C399.834 117.6 398.288 118.213 397.114 119.44C395.941 120.613 395.221 122.32 394.954 124.56H406.954V123.6C406.954 119.6 405.221 117.6 401.754 117.6ZM446.931 151.2C440.265 151.2 435.038 149.28 431.251 145.44C427.465 141.6 425.571 136.24 425.571 129.36C425.571 122.533 427.465 117.2 431.251 113.36C435.038 109.52 440.265 107.6 446.931 107.6C453.598 107.6 458.825 109.52 462.611 113.36C466.398 117.2 468.291 122.533 468.291 129.36C468.291 136.24 466.398 141.6 462.611 145.44C458.825 149.28 453.598 151.2 446.931 151.2ZM446.931 140.64C451.038 140.64 453.091 136.88 453.091 129.36C453.091 121.893 451.038 118.16 446.931 118.16C442.825 118.16 440.771 121.893 440.771 129.36C440.771 136.88 442.825 140.64 446.931 140.64Z" fill="white"/>
<path d="M5.92 78V22.56H28.8C35.1467 22.56 40.1867 24.1867 43.92 27.44C47.6533 30.64 49.52 35.0133 49.52 40.56C49.52 43.8133 48.7733 46.72 47.28 49.28C45.84 51.84 43.7867 53.8933 41.12 55.44L53.36 78H37.36L27.6 58.64H20.56V78H5.92ZM20.56 48.24H27.12C29.4667 48.24 31.28 47.6 32.56 46.32C33.8933 45.04 34.56 43.2 34.56 40.8C34.56 35.9467 32.0267 33.52 26.96 33.52H20.56V48.24ZM73.7594 79.2C67.0927 79.2 61.866 77.28 58.0794 73.44C54.2927 69.6 52.3994 64.24 52.3994 57.36C52.3994 50.5333 54.2927 45.2 58.0794 41.36C61.866 37.52 67.0927 35.6 73.7594 35.6C80.426 35.6 85.6527 37.52 89.4394 41.36C93.226 45.2 95.1194 50.5333 95.1194 57.36C95.1194 64.24 93.226 69.6 89.4394 73.44C85.6527 77.28 80.426 79.2 73.7594 79.2ZM73.7594 68.64C77.866 68.64 79.9194 64.88 79.9194 57.36C79.9194 49.8933 77.866 46.16 73.7594 46.16C69.6527 46.16 67.5994 49.8933 67.5994 57.36C67.5994 64.88 69.6527 68.64 73.7594 68.64ZM120.748 77.52C118.134 78.64 115.201 79.2 111.948 79.2C107.681 79.2 104.508 78.0533 102.428 75.76C100.348 73.4667 99.3075 70 99.3075 65.36V18.8H114.348V64.16C114.348 65.5467 114.588 66.56 115.068 67.2C115.548 67.84 116.348 68.16 117.468 68.16C118.374 68.16 119.468 68.0533 120.748 67.84V77.52ZM144.716 77.52C142.103 78.64 139.17 79.2 135.916 79.2C131.65 79.2 128.476 78.0533 126.396 75.76C124.316 73.4667 123.276 70 123.276 65.36V18.8H138.316V64.16C138.316 65.5467 138.556 66.56 139.036 67.2C139.516 67.84 140.316 68.16 141.436 68.16C142.343 68.16 143.436 68.0533 144.716 67.84V77.52ZM147.245 78V36.8H162.285V78H147.245ZM154.765 31.6C152.205 31.6 150.152 30.9067 148.605 29.52C147.112 28.1333 146.365 26.2933 146.365 24C146.365 21.7067 147.112 19.8667 148.605 18.48C150.152 17.0933 152.205 16.4 154.765 16.4C157.325 16.4 159.352 17.0933 160.845 18.48C162.392 19.8667 163.165 21.7067 163.165 24C163.165 26.2933 162.392 28.1333 160.845 29.52C159.352 30.9067 157.325 31.6 154.765 31.6ZM193.838 78V50.96C193.838 49.36 193.518 48.1867 192.878 47.44C192.291 46.6933 191.278 46.32 189.838 46.32C187.864 46.32 185.784 46.9867 183.598 48.32V78H168.558V36.8H180.798L182.078 40.96C184.584 39.0933 187.038 37.7333 189.438 36.88C191.838 36.0267 194.371 35.6 197.038 35.6C200.878 35.6 203.811 36.64 205.838 38.72C207.864 40.8 208.878 43.76 208.878 47.6V78H193.838ZM238.948 73.44C236.068 75.7867 232.815 76.96 229.188 76.96C225.881 76.96 222.975 76.1067 220.468 74.4C218.015 72.64 216.121 70.2133 214.788 67.12C213.508 64.0267 212.868 60.4533 212.868 56.4C212.868 52.1867 213.588 48.5067 215.028 45.36C216.468 42.16 218.441 39.7333 220.948 38.08C223.455 36.4267 226.281 35.6 229.428 35.6C231.668 35.6 233.721 35.9733 235.588 36.72C237.508 37.4667 239.135 38.56 240.468 40L241.428 36.8H253.668V74.32C253.668 80.9333 251.748 86.1067 247.908 89.84C244.121 93.5733 238.868 95.44 232.148 95.44C229.161 95.44 226.441 95.1733 223.988 94.64C221.588 94.1067 219.055 93.2 216.388 91.92V82.48C221.455 84.08 225.961 84.88 229.908 84.88C233.108 84.88 235.401 84.24 236.788 82.96C238.228 81.68 238.948 79.5733 238.948 76.64V73.44ZM234.148 66.56C235.641 66.56 237.241 66.16 238.948 65.36V47.12C237.188 46.3733 235.375 46 233.508 46C231.535 46 230.068 46.8267 229.108 48.48C228.201 50.1333 227.748 52.64 227.748 56C227.748 59.7867 228.228 62.5067 229.188 64.16C230.201 65.76 231.855 66.56 234.148 66.56ZM272.493 55.6C267.426 53.84 263.773 51.6267 261.533 48.96C259.293 46.2933 258.173 42.8 258.173 38.48C258.173 34.96 259.133 31.8933 261.053 29.28C262.973 26.6667 265.586 24.6667 268.893 23.28C272.253 21.8933 276.093 21.2 280.413 21.2C286.013 21.2 291.319 22.16 296.333 24.08V35.28C291.266 33.84 286.386 33.12 281.693 33.12C276.199 33.12 273.453 34.56 273.453 37.44C273.453 38.5067 273.933 39.4133 274.893 40.16C275.853 40.9067 277.613 41.7067 280.173 42.56L284.973 44.16C290.466 45.9733 294.359 48.16 296.653 50.72C298.999 53.2267 300.173 56.5867 300.173 60.8C300.173 66.6667 298.066 71.2267 293.853 74.48C289.693 77.7333 283.826 79.36 276.253 79.36C272.999 79.36 269.853 79.0667 266.813 78.48C263.773 77.9467 261.186 77.2 259.053 76.24V64.88C261.666 65.5733 264.546 66.16 267.693 66.64C270.893 67.0667 273.799 67.28 276.413 67.28C279.186 67.28 281.239 66.9333 282.573 66.24C283.906 65.4933 284.573 64.3467 284.573 62.8C284.573 61.9467 284.386 61.2533 284.013 60.72C283.693 60.1867 283.026 59.68 282.013 59.2C281.053 58.6667 279.426 58 277.133 57.2L272.493 55.6ZM330.616 76.96C327.469 78.1333 323.869 78.72 319.816 78.72C314.749 78.6667 311.016 77.4933 308.616 75.2C306.216 72.8533 305.016 69.1733 305.016 64.16V47.04H299.336V38.56L305.416 37.12L307.816 26.08H320.056V36.8H330.456V47.04H320.056V63.2C320.056 64.8 320.456 65.92 321.256 66.56C322.056 67.2 323.416 67.52 325.336 67.52C326.829 67.52 328.589 67.36 330.616 67.04V76.96ZM362.623 49.92C360.916 49.6533 359.156 49.52 357.343 49.52C353.983 49.52 350.943 49.9733 348.223 50.88V78H333.183V36.8H345.423L347.263 43.04C351.049 38.56 355.103 36.32 359.423 36.32C360.543 36.32 361.609 36.4 362.623 36.56V49.92ZM375.392 61.2C375.659 63.8667 376.672 65.8133 378.432 67.04C380.245 68.2133 382.939 68.8 386.512 68.8C389.925 68.8 394.085 68.1067 398.992 66.72V75.92C396.965 76.9333 394.539 77.7333 391.712 78.32C388.885 78.9067 386.085 79.2 383.312 79.2C368.912 79.2 361.712 71.9467 361.712 57.44C361.712 50.6133 363.552 45.28 367.232 41.44C370.912 37.5467 376.032 35.6 382.592 35.6C388.139 35.6 392.432 37.0933 395.472 40.08C398.512 43.0133 400.032 47.2267 400.032 52.72C400.032 53.9467 399.925 55.4133 399.712 57.12C399.552 58.7733 399.365 60.1333 399.152 61.2H375.392ZM382.192 45.6C380.272 45.6 378.725 46.2133 377.552 47.44C376.379 48.6133 375.659 50.32 375.392 52.56H387.392V51.6C387.392 47.6 385.659 45.6 382.192 45.6ZM427.529 78L426.409 74.8C424.809 76.2933 422.995 77.44 420.969 78.24C418.942 79.04 416.862 79.44 414.729 79.44C410.782 79.44 407.582 78.2933 405.129 76C402.729 73.7067 401.529 70.64 401.529 66.8C401.529 64.08 402.249 61.7067 403.689 59.68C405.129 57.6 407.102 56.0267 409.609 54.96C412.115 53.84 414.969 53.28 418.169 53.28C420.569 53.28 422.969 53.52 425.369 54V51.92C425.369 49.68 424.862 48.1333 423.849 47.28C422.835 46.4267 421.049 46 418.489 46C414.755 46 410.195 46.8267 404.809 48.48V39.2C406.995 38.08 409.635 37.2 412.729 36.56C415.822 35.92 418.995 35.6 422.249 35.6C428.115 35.6 432.409 36.8 435.129 39.2C437.902 41.5467 439.289 45.28 439.289 50.4V78H427.529ZM419.609 69.92C420.622 69.92 421.662 69.7067 422.729 69.28C423.795 68.8 424.675 68.2133 425.369 67.52V61.6C423.875 61.3867 422.409 61.28 420.969 61.28C417.395 61.28 415.609 62.7733 415.609 65.76C415.609 67.04 415.955 68.0533 416.649 68.8C417.395 69.5467 418.382 69.92 419.609 69.92ZM495.481 78V50.32C495.481 47.6533 494.255 46.32 491.801 46.32C489.775 46.32 487.668 46.9067 485.481 48.08V78H470.441V50.32C470.441 47.6533 469.215 46.32 466.761 46.32C464.735 46.32 462.628 46.9067 460.441 48.08V78H445.401V36.8H457.641L458.921 40.8C461.481 38.9333 463.908 37.6 466.201 36.8C468.495 36 470.948 35.6 473.561 35.6C475.908 35.6 477.935 36.0267 479.641 36.88C481.348 37.7333 482.708 38.96 483.721 40.56C486.388 38.8 488.868 37.5467 491.161 36.8C493.455 36 495.935 35.6 498.601 35.6C502.335 35.6 505.241 36.64 507.321 38.72C509.455 40.7467 510.521 43.6 510.521 47.28V78H495.481Z" fill="white"/>
<path fill-rule="evenodd" clip-rule="evenodd" d="M619.843 84.0744L541.393 39.2473C540.201 38.5664 539.678 37.086 540.368 35.8941C544.911 28.038 555.189 24.3515 564.066 29.1356L651.653 76.3407C661.804 81.8117 663.729 94.8288 657.222 103.096C656.463 104.06 655.11 104.226 654.047 103.619L625.592 87.359C625.442 87.2737 625.302 87.1731 625.167 87.0661C624.852 86.816 624.508 86.5883 624.134 86.3871L619.843 84.0744ZM573.685 129.49C573.685 128.513 574.203 127.609 575.043 127.119L619.48 101.19C620.317 100.702 621.349 100.697 622.191 101.178L638.654 110.585C640.483 111.63 640.495 114.278 638.675 115.34L577.776 150.875C575.96 151.934 573.685 150.616 573.685 148.503V129.49ZM558.414 64.7352C559.266 65.2222 559.793 66.1326 559.793 67.119V124.122C559.793 124.667 559.853 125.192 559.967 125.69C560.025 125.943 560.065 126.201 560.065 126.46V158.323C560.065 159.573 559.226 160.687 557.995 160.851C547.919 162.187 538 154.402 538 143.155V57.7797C538 55.6782 540.253 54.3582 542.069 55.3959L558.414 64.7352Z" fill="#1399DE"/>
</svg>
